<svg width="18" height="18" viewBox="0 0 18 18" fill="none" xmlns="http://www.w3.org/2000/svg">
<path d="M8.99984 2.33317C5.31794 2.33317 2.33317 5.31794 2.33317 8.99984C2.33317 12.6817 5.31794 15.6665 8.99984 15.6665C12.6817 15.6665 15.6665 12.6817 15.6665 8.99984C15.6665 5.31794 12.6817 2.33317 8.99984 2.33317ZM0.666504 8.99984C0.666504 4.39746 4.39746 0.666504 8.99984 0.666504C13.6022 0.666504 17.3332 4.39746 17.3332 8.99984C17.3332 13.6022 13.6022 17.3332 8.99984 17.3332C4.39746 17.3332 0.666504 13.6022 0.666504 8.99984ZM8.99984 3.99984C9.46008 3.99984 9.83317 4.37293 9.83317 4.83317V8.65466L12.0891 10.9106C12.4145 11.236 12.4145 11.7637 12.0891 12.0891C11.7637 12.4145 11.236 12.4145 10.9106 12.0891L8.41058 9.58909C8.2543 9.43281 8.1665 9.22085 8.1665 8.99984V4.83317C8.1665 4.37293 8.5396 3.99984 8.99984 3.99984Z" fill="#66A8FF"/>
</svg>
