<svg width="16" height="16" viewBox="0 0 16 16" fill="none" xmlns="http://www.w3.org/2000/svg">
<path d="M9.66667 2.16667C9.20643 2.16667 8.83333 1.79357 8.83333 1.33333C8.83333 0.873096 9.20643 0.5 9.66667 0.5H14.6667C14.8877 0.5 15.0996 0.587797 15.2559 0.744078C15.4122 0.900358 15.5 1.11232 15.5 1.33333L15.5 6.33333C15.5 6.79357 15.1269 7.16667 14.6667 7.16667C14.2064 7.16667 13.8333 6.79357 13.8333 6.33333L13.8333 3.34518L6.08926 11.0893C5.76382 11.4147 5.23618 11.4147 4.91074 11.0893C4.58531 10.7638 4.58531 10.2362 4.91074 9.91074L12.6548 2.16667H9.66667ZM0.5 3.83333C0.5 2.91286 1.24619 2.16667 2.16667 2.16667H6.33333C6.79357 2.16667 7.16667 2.53976 7.16667 3C7.16667 3.46024 6.79357 3.83333 6.33333 3.83333H2.16667V13.8333H12.1667V9.66667C12.1667 9.20643 12.5398 8.83333 13 8.83333C13.4602 8.83333 13.8333 9.20643 13.8333 9.66667V13.8333C13.8333 14.7538 13.0871 15.5 12.1667 15.5H2.16667C1.24619 15.5 0.5 14.7538 0.5 13.8333V3.83333Z" fill="#66A8FF"/>
</svg>
